<svg xmlns="http://www.w3.org/2000/svg" width="24" height="24" viewBox="0 0 24 24">
  <path d="M1.221 0c-0.030 0.093-0.060 0.184-0.060 0.307v23.23c0 0.216 0.060 0.339 0.183 0.462l11.415-12.093-11.538-11.907zM13.53 12.708l2.952 3.045-4.215 2.4s-5.355 3.045-8.307 4.74l9.57-10.185zM14.33 11.877l3.168 3.292c0.495-0.277 4.369-2.493 4.923-2.801 0.585-0.338 0.525-0.8 0.030-1.046-0.46-0.255-4.335-2.475-4.92-2.835l-3.203 3.392zM13.529 11.078l2.985-3.17-4.26-2.43s-6.943-3.972-9.253-5.298l10.53 10.899z" />
</svg>